<svg width="900" height="700" viewBox="0 0 900 600" fill="none" xmlns="http://www.w3.org/2000/svg">
<path d="M900 0H0V600H900V0Z" fill="#55D6D6"/>
<path d="M602.5 600C620.7 566.8 638.8 533.5 650.6 496.7C662.3 459.8 667.8 419.3 689.7 389.7C711.5 360 749.7 341.1 787.5 328.4C825.3 315.7 862.6 309.1 900 302.5V600H602.5Z" fill="#34BC85"/>
<path d="M297.5 0C276.1 34.4 254.7 68.7 235.6 97.6C216.5 126.4 199.8 149.8 181.7 181.7C163.7 213.6 144.3 254.1 113.8 274.8C83.3 295.5 41.7 296.5 0 297.5V0H297.5Z" fill="#34BC85"/>
</svg>
