<svg width="383" height="63" viewBox="0 0 383 63" fill="none" xmlns="http://www.w3.org/2000/svg">
<path d="M41.2233 9.13939C41.2233 14.187 37.4043 18.2788 32.6932 18.2788C27.9822 18.2788 24.1631 14.187 24.1631 9.13939C24.1631 4.09188 27.9822 0 32.6932 0C37.4043 0 41.2233 4.09188 41.2233 9.13939Z" fill="#34BC85"/>
<path d="M28.0952 49.367C12.5786 49.367 0 35.8903 0 19.2655V4.8165C15.5166 4.8165 28.0959 18.2936 28.0959 34.9185L28.0952 49.367Z" fill="#34BC85"/>
<path d="M59 14.4491C43.4838 14.4491 30.9051 27.9261 30.9051 44.551V59C46.422 59 59 45.5226 59 28.898V14.4491Z" fill="#34BC85"/>
<path d="M79.5183 18.2C83.3583 18.2 86.3663 19.16 88.5423 21.08C90.7183 23 91.8063 25.688 91.8063 29.144C91.8063 30.52 91.5983 31.88 91.1823 33.224C90.7663 34.568 90.0943 35.8 89.1663 36.92C88.2703 38.008 87.0703 38.888 85.5663 39.56C84.0943 40.2 82.2863 40.52 80.1423 40.52H75.0063V53H70.0143V18.2H79.5183ZM80.0943 35.624C81.4063 35.624 82.4943 35.416 83.3583 35C84.2543 34.552 84.9423 33.992 85.4223 33.32C85.9343 32.648 86.2863 31.944 86.4783 31.208C86.7023 30.472 86.8143 29.816 86.8143 29.24C86.8143 28.6 86.7023 27.928 86.4783 27.224C86.2863 26.488 85.9343 25.816 85.4223 25.208C84.9423 24.568 84.2863 24.056 83.4543 23.672C82.6223 23.256 81.5823 23.048 80.3343 23.048H75.0063V35.624H80.0943ZM106.137 53.48C104.249 53.48 102.537 53.08 101.001 52.28C99.4653 51.48 98.2493 50.312 97.3533 48.776C96.4573 47.208 96.0093 45.272 96.0093 42.968C96.0093 40.728 96.4733 38.808 97.4013 37.208C98.3613 35.576 99.6093 34.328 101.145 33.464C102.713 32.568 104.409 32.12 106.233 32.12C108.153 32.12 109.737 32.52 110.985 33.32C112.233 34.12 113.193 35.08 113.865 36.2L113.577 36.968L114.057 32.936H118.521V53H113.673V47.912L114.153 49.112C114.025 49.368 113.753 49.736 113.337 50.216C112.921 50.696 112.377 51.192 111.705 51.704C111.033 52.184 110.217 52.6 109.257 52.952C108.329 53.304 107.289 53.48 106.137 53.48ZM107.433 49.496C109.033 49.496 110.377 49.08 111.465 48.248C112.585 47.384 113.321 46.216 113.673 44.744V40.616C113.289 39.304 112.505 38.216 111.321 37.352C110.169 36.488 108.825 36.056 107.289 36.056C106.137 36.056 105.081 36.344 104.121 36.92C103.161 37.464 102.393 38.248 101.817 39.272C101.241 40.264 100.953 41.416 100.953 42.728C100.953 44.008 101.241 45.16 101.817 46.184C102.425 47.208 103.225 48.024 104.217 48.632C105.209 49.208 106.281 49.496 107.433 49.496ZM138.097 53.48C136.625 53.48 135.201 53.16 133.825 52.52C132.481 51.848 131.425 50.936 130.657 49.784L130.945 48.296V62.648H126.097V32.6H130.273L130.945 37.544L130.465 36.152C131.425 34.968 132.625 34.008 134.065 33.272C135.537 32.504 137.185 32.12 139.009 32.12C140.897 32.12 142.593 32.568 144.097 33.464C145.601 34.36 146.785 35.624 147.649 37.256C148.513 38.856 148.945 40.744 148.945 42.92C148.945 45.096 148.465 46.984 147.505 48.584C146.577 50.152 145.297 51.368 143.665 52.232C142.033 53.064 140.177 53.48 138.097 53.48ZM137.137 49.64C138.385 49.64 139.521 49.352 140.545 48.776C141.601 48.2 142.433 47.416 143.041 46.424C143.681 45.4 144.001 44.248 144.001 42.968C144.001 41.656 143.713 40.488 143.137 39.464C142.561 38.44 141.777 37.64 140.785 37.064C139.793 36.488 138.689 36.2 137.473 36.2C135.809 36.2 134.401 36.648 133.249 37.544C132.129 38.44 131.361 39.624 130.945 41.096V44.696C131.201 46.136 131.905 47.32 133.057 48.248C134.209 49.176 135.569 49.64 137.137 49.64ZM164.192 53.48C161.888 53.48 159.904 53.032 158.24 52.136C156.576 51.208 155.296 49.944 154.4 48.344C153.504 46.712 153.056 44.872 153.056 42.824C153.056 40.84 153.552 39.048 154.544 37.448C155.568 35.816 156.928 34.52 158.624 33.56C160.32 32.6 162.208 32.12 164.288 32.12C166.976 32.12 169.2 32.904 170.96 34.472C172.752 36.008 173.952 38.184 174.56 41L158.192 46.664L157.04 43.88L170.192 39.08L169.184 39.752C168.8 38.728 168.192 37.848 167.36 37.112C166.528 36.344 165.392 35.96 163.952 35.96C162.16 35.96 160.688 36.584 159.536 37.832C158.416 39.048 157.856 40.616 157.856 42.536C157.856 44.584 158.464 46.232 159.68 47.48C160.896 48.728 162.432 49.352 164.288 49.352C165.152 49.352 165.984 49.208 166.784 48.92C167.584 48.6 168.336 48.184 169.04 47.672L171.248 51.272C170.224 51.944 169.088 52.488 167.84 52.904C166.624 53.288 165.408 53.48 164.192 53.48ZM184.323 32.936L184.803 38.696L184.611 37.928C185.155 36.712 185.907 35.672 186.867 34.808C187.859 33.944 188.883 33.288 189.939 32.84C191.027 32.36 191.939 32.12 192.675 32.12L192.435 36.92C190.931 36.824 189.603 37.112 188.451 37.784C187.331 38.456 186.451 39.352 185.811 40.472C185.171 41.592 184.851 42.792 184.851 44.072V53H180.003V32.936H184.323ZM199.964 53V37.256H196.556V32.936H199.964V24.728C199.964 21.88 200.636 19.672 201.98 18.104C203.356 16.504 205.356 15.704 207.98 15.704C208.684 15.704 209.452 15.816 210.284 16.04C211.148 16.232 211.916 16.552 212.588 17L210.524 20.504C210.236 20.184 209.9 19.976 209.516 19.88C209.164 19.752 208.812 19.688 208.46 19.688C207.34 19.688 206.444 20.088 205.772 20.888C205.132 21.656 204.812 22.968 204.812 24.824V32.936H211.148V37.256H204.812V53H199.964ZM221.214 32.936L221.694 38.696L221.502 37.928C222.046 36.712 222.798 35.672 223.758 34.808C224.75 33.944 225.774 33.288 226.83 32.84C227.918 32.36 228.83 32.12 229.566 32.12L229.326 36.92C227.822 36.824 226.494 37.112 225.342 37.784C224.222 38.456 223.342 39.352 222.702 40.472C222.062 41.592 221.742 42.792 221.742 44.072V53H216.894V32.936H221.214ZM243.739 53.48C241.435 53.48 239.451 53.032 237.787 52.136C236.123 51.208 234.843 49.944 233.947 48.344C233.051 46.712 232.603 44.872 232.603 42.824C232.603 40.84 233.099 39.048 234.091 37.448C235.115 35.816 236.475 34.52 238.171 33.56C239.867 32.6 241.755 32.12 243.835 32.12C246.523 32.12 248.747 32.904 250.507 34.472C252.299 36.008 253.499 38.184 254.107 41L237.739 46.664L236.587 43.88L249.739 39.08L248.731 39.752C248.347 38.728 247.739 37.848 246.907 37.112C246.075 36.344 244.939 35.96 243.499 35.96C241.707 35.96 240.235 36.584 239.083 37.832C237.963 39.048 237.403 40.616 237.403 42.536C237.403 44.584 238.011 46.232 239.227 47.48C240.443 48.728 241.979 49.352 243.835 49.352C244.699 49.352 245.531 49.208 246.331 48.92C247.131 48.6 247.883 48.184 248.587 47.672L250.795 51.272C249.771 51.944 248.635 52.488 247.387 52.904C246.171 53.288 244.955 53.48 243.739 53.48ZM268.958 53.48C266.654 53.48 264.67 53.032 263.006 52.136C261.342 51.208 260.062 49.944 259.166 48.344C258.27 46.712 257.822 44.872 257.822 42.824C257.822 40.84 258.318 39.048 259.31 37.448C260.334 35.816 261.694 34.52 263.39 33.56C265.086 32.6 266.974 32.12 269.054 32.12C271.742 32.12 273.966 32.904 275.726 34.472C277.518 36.008 278.718 38.184 279.326 41L262.958 46.664L261.806 43.88L274.958 39.08L273.95 39.752C273.566 38.728 272.958 37.848 272.126 37.112C271.294 36.344 270.158 35.96 268.718 35.96C266.926 35.96 265.454 36.584 264.302 37.832C263.182 39.048 262.622 40.616 262.622 42.536C262.622 44.584 263.23 46.232 264.446 47.48C265.662 48.728 267.198 49.352 269.054 49.352C269.918 49.352 270.75 49.208 271.55 48.92C272.35 48.6 273.102 48.184 273.806 47.672L276.014 51.272C274.99 51.944 273.854 52.488 272.606 52.904C271.39 53.288 270.174 53.48 268.958 53.48ZM286.449 53V37.256H283.041V32.936H286.449V24.728C286.449 21.88 287.121 19.672 288.465 18.104C289.841 16.504 291.841 15.704 294.465 15.704C295.169 15.704 295.937 15.816 296.769 16.04C297.633 16.232 298.401 16.552 299.073 17L297.009 20.504C296.721 20.184 296.385 19.976 296.001 19.88C295.649 19.752 295.297 19.688 294.945 19.688C293.825 19.688 292.929 20.088 292.257 20.888C291.617 21.656 291.297 22.968 291.297 24.824V32.936H297.633V37.256H291.297V53H286.449ZM300.478 42.776C300.478 40.76 300.958 38.952 301.918 37.352C302.878 35.72 304.206 34.44 305.902 33.512C307.598 32.584 309.534 32.12 311.71 32.12C313.918 32.12 315.838 32.584 317.47 33.512C319.134 34.44 320.414 35.72 321.31 37.352C322.238 38.952 322.702 40.76 322.702 42.776C322.702 44.792 322.238 46.616 321.31 48.248C320.382 49.848 319.086 51.128 317.422 52.088C315.79 53.016 313.854 53.48 311.614 53.48C309.502 53.48 307.598 53.048 305.902 52.184C304.238 51.32 302.91 50.088 301.918 48.488C300.958 46.856 300.478 44.952 300.478 42.776ZM305.374 42.824C305.374 44.072 305.646 45.208 306.19 46.232C306.734 47.224 307.47 48.024 308.398 48.632C309.358 49.208 310.414 49.496 311.566 49.496C313.39 49.496 314.878 48.856 316.03 47.576C317.214 46.296 317.806 44.712 317.806 42.824C317.806 40.936 317.214 39.352 316.03 38.072C314.878 36.76 313.39 36.104 311.566 36.104C310.382 36.104 309.326 36.408 308.398 37.016C307.47 37.624 306.734 38.44 306.19 39.464C305.646 40.488 305.374 41.608 305.374 42.824ZM332.87 32.936L333.35 38.696L333.158 37.928C333.702 36.712 334.454 35.672 335.414 34.808C336.406 33.944 337.43 33.288 338.486 32.84C339.574 32.36 340.486 32.12 341.222 32.12L340.982 36.92C339.478 36.824 338.15 37.112 336.998 37.784C335.878 38.456 334.998 39.352 334.358 40.472C333.718 41.592 333.398 42.792 333.398 44.072V53H328.55V32.936H332.87ZM351.199 32.936L351.631 37.304L351.391 36.92C352.127 35.416 353.167 34.248 354.511 33.416C355.887 32.552 357.455 32.12 359.215 32.12C360.879 32.12 362.271 32.504 363.391 33.272C364.511 34.04 365.199 35.128 365.455 36.536L365.215 36.728C366.015 35.288 367.087 34.168 368.431 33.368C369.775 32.536 371.183 32.12 372.655 32.12C374.639 32.12 376.207 32.68 377.359 33.8C378.511 34.888 379.103 36.328 379.135 38.12V53H374.335V39.944C374.303 38.92 374.063 38.072 373.615 37.4C373.199 36.728 372.431 36.36 371.311 36.296C370.159 36.296 369.135 36.648 368.239 37.352C367.375 38.056 366.687 38.968 366.175 40.088C365.695 41.208 365.439 42.408 365.407 43.688V53H360.559V39.944C360.527 38.92 360.271 38.072 359.791 37.4C359.343 36.728 358.559 36.36 357.439 36.296C356.319 36.296 355.311 36.648 354.415 37.352C353.551 38.056 352.879 38.984 352.399 40.136C351.919 41.256 351.679 42.456 351.679 43.736V53H346.831V32.936H351.199Z" fill="black"/>
</svg>
